<?xml version="1.0" encoding="UTF-8" standalone="no"?>
<!-- Created with Inkscape (http://www.inkscape.org/) -->

<svg
   width="48"
   height="48"
   viewBox="0 0 12.7 12.7"
   version="1.1"
   id="svg5"
   xml:space="preserve"
   inkscape:version="1.2.2 (1:1.2.2+202212051552+b0a8486541)"
   sodipodi:docname="brand.svg"
   inkscape:export-filename="reticle2.png"
   inkscape:export-xdpi="96"
   inkscape:export-ydpi="96"
   xmlns:inkscape="http://www.inkscape.org/namespaces/inkscape"
   xmlns:sodipodi="http://sodipodi.sourceforge.net/DTD/sodipodi-0.dtd"
   xmlns="http://www.w3.org/2000/svg"
   xmlns:svg="http://www.w3.org/2000/svg"><sodipodi:namedview
     id="namedview7"
     pagecolor="#ffffff"
     bordercolor="#666666"
     borderopacity="1.0"
     inkscape:showpageshadow="2"
     inkscape:pageopacity="0.0"
     inkscape:pagecheckerboard="0"
     inkscape:deskcolor="#d1d1d1"
     inkscape:document-units="px"
     showgrid="true"
     inkscape:zoom="4"
     inkscape:cx="-10.875"
     inkscape:cy="39.875"
     inkscape:window-width="1366"
     inkscape:window-height="740"
     inkscape:window-x="0"
     inkscape:window-y="28"
     inkscape:window-maximized="1"
     inkscape:current-layer="layer1"><inkscape:grid
       type="xygrid"
       id="grid2570" /></sodipodi:namedview><defs
     id="defs2" /><g
     inkscape:label="Camada 1"
     inkscape:groupmode="layer"
     id="layer1"><rect
       style="fill:#000000;fill-opacity:0.1;stroke-width:1.30187;stroke-linecap:round;stroke-linejoin:round;paint-order:markers stroke fill"
       id="rect409"
       width="12.7"
       height="12.7"
       x="1.3877788e-17"
       y="0"
       ry="3.4472091" /><path
       id="rect843"
       style="fill:#000000;fill-opacity:0.1;stroke-width:1.30187;stroke-linecap:round;stroke-linejoin:round;paint-order:markers stroke fill"
       d="M 3.4473348 0 C 1.5375829 3.133293e-16 0 1.5375829 0 3.4473348 L 0 9.2526652 C 3.133293e-16 11.162417 1.5375829 12.7 3.4473348 12.7 L 9.2526652 12.7 C 11.162417 12.7 12.7 11.162417 12.7 9.2526652 L 12.7 3.4473348 C 12.7 1.5375829 11.162417 0 9.2526652 0 L 3.4473348 0 z M 4.0519491 1.3229167 L 8.6480509 1.3229167 C 10.159938 1.3229167 11.377083 2.5400621 11.377083 4.0519491 L 11.377083 8.6480509 C 11.377083 10.159938 10.159938 11.377083 8.6480509 11.377083 L 4.0519491 11.377083 C 2.5400621 11.377083 1.3229167 10.159938 1.3229167 8.6480509 L 1.3229167 4.0519491 C 1.3229167 2.5400621 2.5400621 1.3229167 4.0519491 1.3229167 z " /><rect
       style="fill:#000000;fill-opacity:0.1;stroke-width:0.759424;stroke-linecap:round;stroke-linejoin:round;paint-order:markers stroke fill"
       id="rect848"
       width="7.4083333"
       height="7.4083333"
       x="2.6458333"
       y="2.6458333"
       ry="2.0108719" /></g></svg>
